<?xml version="1.0" encoding="utf-8"?>
<!-- Generator: Adobe Illustrator 25.0.0, SVG Export Plug-In . SVG Version: 6.00 Build 0)  -->
<svg version="1.1" id="Layer_2" xmlns="http://www.w3.org/2000/svg" xmlns:xlink="http://www.w3.org/1999/xlink" x="0px" y="0px"
	 viewBox="0 0 354.6 476.9" style="enable-background:new 0 0 354.6 476.9;" xml:space="preserve">
<style type="text/css">
	.st0{display:none;fill:#58595B;}
	.st1{enable-background:new    ;}
	.st2{fill:#58595B;}
</style>
<path class="st0" d="M337.3,133c-4.7,9.5-9.9,19-14.3,24.1c-0.2,0.3-0.5,0.5-0.5,0.5c-3.1,3.5-7.5,8.2-14.5,11.7
	c-2.9,1.5-16.4,8.4-31.5,3.2c-10.5-3.5-16.4-11-18.5-13.8c-2.9-3.7-5.1-7.8-5.1-7.8c-0.3-0.5-0.5-1-0.7-1.5
	c-0.1-0.1-0.2-0.3-0.2-0.5c-0.3-0.5-0.6-1.2-0.9-2c-0.9-2-0.9-1.9-1.6-3.5c-1-2.1-1.8-3.7-2.6-5.3c-0.1-0.1-0.2-0.3-0.3-0.6
	c-0.3-0.6-0.8-1.4-1.4-2.4c-1.3-2.1-2-2.8-2.6-3.3c-0.8-0.6-1.7-1-1.8-1.1c-0.5-0.2-0.9-0.3-1.2-0.4c0,0,0,0,0,0
	c-3.3-0.5-6.6,1.4-8.5,2.7c-22,14.6-35.6,38.2-35.6,38.2c-3.6,6.2-7.4,13.2-11.5,21.1c2.5-5.7,5.2-11.6,7.1-15.4
	c0.1-0.3,0.3-0.5,0.4-0.8c9.4-17.7,17.9-29.1,20-31.9c0.2-0.2,0.4-0.5,0.6-0.8c7.4-10.1,26.6-39.6,40.9-26.4c1.9,1.7,3.1,4,4.4,6.2
	c3.6,6.2,7.4,12.3,11.4,18.3c0.5,0.7,0.9,1.3,1.4,2c0.2,0.3,0.4,0.6,0.6,0.8c1.2,1.5,2.4,3,3.8,4.4l0.2,0.2c0.2,0.2,0.3,0.3,0.5,0.5
	c0.1,0.1,0.2,0.2,0.3,0.2c0.2,0.2,0.5,0.4,0.7,0.6c0.4,0.4,0.9,0.7,1.3,1.1c1.3,1,2.7,1.9,4.3,2.8c6.8,3.7,14.3,4.5,21.7,3.2
	c0.7-0.1,1.4-0.3,2.1-0.4c15.7-3.3,24.5-14.2,27.6-18.1C334,138.2,335.6,136.1,337.3,133z"/>
<path class="st0" d="M324,476.4c-1.3,2.6-2.8,5.4-4.7,8.3c-1.8,2.8-3.7,5.4-5.4,7.5c-2.9-19.8-8.4-35.2-12.9-45.7
	c-11.3-26.4-23.6-37.3-27.6-40.6c-2.3-1.9-12.5-10.1-31.4-16.1c-19.2-6.1-32.8-5.2-64-4.2c-52.4,1.7-73.3,0.7-86.5-0.4
	c-24.8-1.9-37.6-4.8-50.7-11.2c-8.2-4.1-22.7-11.4-33.2-27.7c-1.6-2.5-8.3-13.2-10.8-29.8C-4.8,304.9-5,286.2,11,251
	c4-8.9,9.5-19.9,17-32c-7.3,13.7-14.7,30.4-19.8,49.4C6.1,276.1,4,285.8,5.1,298c0.5,5.7,2.8,26.9,19.2,43.7
	c3.8,3.9,11.7,11,31.9,18.1c7.6,2.7,27.6,9.3,75.1,9.7c24.5,0.2,53.8-1.2,59.5-1.5c19.9-1,31.7-2.1,48.5,1.8
	c7.1,1.7,18.8,4.5,31.4,12.5c16.5,10.5,25,23.6,31.7,34.2C315.9,437.9,321.6,459.6,324,476.4z"/>
<g>
	<g class="st1">
		<g>
			<path class="st2" d="M344.5,106.1v17.2c0,1.8-0.1,3.6-0.4,5.5c-0.6,4.8-2,9.1-3.5,12.7c-1.1,2.6-2.3,4.7-3.3,6.5
				c-1.7,2.9-3.3,4.8-4.1,5.7c-3.1,3.7-11.9,13.9-27.6,17c-0.7,0.2-1.4,0.3-2.1,0.4c-2.1,0.3-4.3,0.5-6.4,0.5
				c-5.3,0-10.5-1.1-15.3-3.5c-1.6-0.8-3-1.6-4.3-2.6c-0.4-0.3-0.9-0.7-1.3-1c-3-2.8-4.3-4.2-5.5-5.6c-1.1-1.4-1.6-2-2-2.7
				c-4-5.6-7.8-11.3-11.4-17.2c-1.3-2.1-2.5-4.2-4.4-5.8c-2.5-2.2-5.2-3.1-8-3.1c-12.8,0-26.8,20.1-32.9,27.9
				c-2.7,3.4-11.2,14-20.6,30.7c-2.3,4.3-5.1,9.8-7.6,15.2c-3.3,7-6.2,13.7-6.7,15.2c-2.4,7.4-4.5,14.2-5.8,20.1
				c-0.8-2.2-1.2-4.7-1.2-7.4c0-0.5,0-1,0-1.5c0-1,0.1-2.1,0.3-3.2c0.9-7.1,3.6-15.5,6.7-25.2c0.5-1.6,3.5-8.3,6.7-15.2
				c2.5-5.4,5.2-10.9,7.6-15.2c9.4-16.7,17.9-27.3,20.6-30.7c6.1-7.8,20.1-27.9,32.9-27.9c2.8,0,5.5,0.9,8,3.1
				c1.9,1.6,3.1,3.8,4.4,5.8c3.6,5.8,7.4,11.6,11.4,17.2c0.5,0.6,0.9,1.2,2,2.7c1.2,1.4,2.4,2.8,5.5,5.6c0.4,0.3,0.9,0.7,1.3,1
				c1.3,1,2.7,1.8,4.3,2.6c4.8,2.5,10,3.5,15.3,3.5c2.1,0,4.3-0.2,6.4-0.5c0.7-0.1,1.4-0.2,2.1-0.4c15.7-3.1,24.5-13.3,27.6-17
				c0.8-0.9,2.4-2.9,4.1-5.8c1.1-1.8,2.2-3.9,3.3-6.5c1.5-3.6,2.9-7.8,3.5-12.7C344.4,109.7,344.5,107.8,344.5,106.1z"/>
			<path d="M171.4,239.2c-0.8,3.5-1.2,6.8-1.2,9.8v-17.2C170.2,234.5,170.6,237,171.4,239.2z"/>
		</g>
		<g>
			<path class="st2" d="M350.2,375.6v15.5c0,8.4-0.9,23.7-6.8,41.5c-5.5,16.7-13.3,29.4-19.4,37.8v-17.2
				c6.1-8.4,13.9-21.2,19.4-37.8c0.3-0.8,0.5-1.7,0.8-2.5c0.3-0.8,0.5-1.6,0.7-2.5c0.3-1.1,0.6-2.2,0.9-3.3c0.1-0.5,0.3-1,0.4-1.5
				c0.2-1,0.5-1.9,0.7-2.8c0.1-0.3,0.1-0.6,0.2-0.9c0.1-0.3,0.1-0.6,0.2-0.9c0.1-0.5,0.2-1,0.3-1.5c0.1-0.5,0.2-1,0.3-1.5
				c0.1-0.5,0.2-1,0.3-1.4c0.2-0.9,0.3-1.7,0.4-2.6c0.1-0.4,0.1-0.8,0.2-1.2c0.1-0.6,0.2-1.1,0.2-1.7c0.1-0.5,0.1-0.9,0.2-1.3
				c0.1-0.9,0.2-1.7,0.3-2.6c0.1-0.6,0.1-1.1,0.2-1.7c0.1-0.7,0.1-1.4,0.2-2.1c0.1-1,0.1-2,0.2-2.9c0-0.1,0-0.2,0-0.2
				C350.1,378.6,350.2,377,350.2,375.6z"/>
			<path d="M349.8,383.5c0.1-1,0.1-2,0.2-2.9C350,381.6,349.9,382.5,349.8,383.5z"/>
			<path d="M350.2,373.9v1.6c0,1.5-0.1,3.1-0.2,4.8C350.2,377.9,350.2,375.8,350.2,373.9z"/>
		</g>
		<g>
			<path class="st2" d="M324,453.2v17.2c-2.4-15.7-8.1-36.1-21.7-56.3c-6.7-10-15.2-22.3-31.7-32.1c-12.6-7.5-24.3-10.2-31.4-11.8
				c-9-2-16.5-2.6-24.7-2.6c-7.1,0-14.5,0.5-23.8,0.9c-5.3,0.2-31.2,1.5-54.6,1.5c-1.6,0-3.3,0-4.9,0c-47.5-0.4-67.5-6.6-75.1-9.1
				c-20.2-6.7-28.1-13.4-31.9-17c-16.4-15.8-18.6-35.7-19.2-41c-0.2-2.2-0.3-4.3-0.3-6.3v-17.2c0,0.5,0,1,0,1.5c0,1,0.1,2.1,0.1,3.2
				c0,0.5,0.1,1.1,0.1,1.6c0.5,5.3,2.8,25.3,19.2,41c3.8,3.6,11.7,10.3,31.9,17c7.6,2.5,27.6,8.7,75.1,9.1c1.6,0,3.3,0,4.9,0
				c23.3,0,49.2-1.2,54.6-1.5c9.3-0.5,16.8-0.9,23.8-0.9c8.2,0,15.7,0.6,24.7,2.6c7.1,1.5,18.8,4.2,31.4,11.8
				c16.5,9.8,25,22.2,31.7,32.1C315.9,417.1,321.6,437.5,324,453.2z"/>
		</g>
		<g>
			<path d="M350.2,375.6c0,1.5-0.1,3.1-0.2,4.8c0,0.1,0,0.2,0,0.2c0,0.9-0.1,1.9-0.2,2.9c-0.1,0.7-0.1,1.4-0.2,2.1
				c-0.1,0.5-0.1,1.1-0.2,1.7c-0.1,0.8-0.2,1.7-0.3,2.6c0,0.4-0.1,0.9-0.2,1.3c-0.1,0.6-0.2,1.1-0.2,1.7c-0.1,0.4-0.1,0.8-0.2,1.2
				c-0.1,0.8-0.3,1.7-0.4,2.6c-0.1,0.5-0.2,1-0.3,1.4c-0.1,0.5-0.2,1-0.3,1.5c-0.1,0.5-0.2,1-0.3,1.5c-0.1,0.3-0.1,0.6-0.2,0.9
				c-0.1,0.3-0.1,0.6-0.2,0.9c-0.2,0.9-0.4,1.9-0.7,2.8c-0.1,0.5-0.2,1-0.4,1.5c-0.3,1.1-0.6,2.2-0.9,3.3c-0.2,0.8-0.5,1.6-0.7,2.5
				c-0.2,0.8-0.5,1.6-0.8,2.5c-5.5,16.7-13.3,29.4-19.4,37.8c-2.4-15.8-8.1-36.1-21.7-56.3c-6.7-10-15.2-22.3-31.7-32.1
				c-12.6-7.5-24.3-10.2-31.4-11.8c-9-2-16.5-2.6-24.7-2.6c-7.1,0-14.5,0.5-23.8,0.9c-5.3,0.2-31.2,1.5-54.6,1.5c-1.6,0-3.3,0-4.9,0
				c-47.5-0.4-67.5-6.6-75.1-9.1c-20.2-6.7-28.1-13.4-31.9-17C7.9,310.9,5.6,291,5.1,285.7c0-0.5-0.1-1.1-0.1-1.6
				c-0.1-1.1-0.1-2.1-0.1-3.2c0-0.5,0-1,0-1.5c0-8.5,1.7-15.6,3.4-21.5c5.1-17.8,12.5-33.5,19.8-46.3c6-10.6,12-19.4,16.5-25.8
				c14.3-20.5,30.3-43.2,56.7-72.4c28.4-31.4,50.8-50.2,67.9-64.5c11.7-9.7,29.5-24.6,56.2-35.7c17.8-7.5,29.3-9.1,36.5-9.1
				c3.6,0,6,0.4,7.7,0.7c12.5,2.5,21.1,9.1,27.3,13.9c11.3,8.7,17.1,17.5,25.8,30.9c5.7,8.8,12.4,19.3,17.4,34.5
				c2.7,8.3,4.7,14.7,4.7,22c0,1.8-0.1,3.6-0.4,5.5c-0.6,4.8-2,9.1-3.5,12.7c-1.1,2.6-2.3,4.7-3.3,6.5c-1.7,2.9-3.3,4.8-4.1,5.8
				c-3.1,3.7-11.9,13.9-27.6,17c-0.7,0.2-1.4,0.3-2.1,0.4c-2.1,0.3-4.3,0.5-6.4,0.5c-5.3,0-10.5-1.1-15.3-3.5
				c-1.6-0.8-3-1.6-4.3-2.6c-0.4-0.3-0.9-0.7-1.3-1c-3-2.8-4.3-4.2-5.5-5.6c-1.1-1.4-1.6-2-2-2.7c-4-5.6-7.8-11.3-11.4-17.2
				c-1.3-2.1-2.5-4.2-4.4-5.8c-2.5-2.2-5.2-3.1-8-3.1c-12.8,0-26.8,20.1-32.9,27.9c-2.7,3.4-11.2,14-20.6,30.7
				c-2.3,4.3-5.1,9.8-7.6,15.2c-3.3,7-6.2,13.7-6.7,15.2c-3.1,9.7-5.8,18.1-6.7,25.2c-0.1,1.1-0.2,2.1-0.3,3.2c0,0.5,0,1,0,1.5
				c0,2.7,0.4,5.2,1.2,7.4c0.5,1.4,1.3,2.8,2.2,4c7.3,9.5,20.7,4.1,59,9.2c18.8,2.5,33.8,4.5,50,12.4c24.2,11.7,37.4,29.8,44.2,39.3
				c20.3,28.6,22.8,56.4,23.2,63.8C350.1,369.1,350.3,371.8,350.2,375.6z"/>
		</g>
	</g>
</g>
</svg>
